# xmcd CD database file
#
# Track frame offsets:
#	150
#	4486
#	20778
#	41004
#	60920
#	74922
#	104575
#	123539
#	143657
#
# Disc length: 2565 seconds
#
# Revision: 2
# Processed by: cddbd v1.5.2PL0 Copyright (c) Steve Scherf et al.
# Submitted via: CDex 1.70beta2
#
DISCID=870a0309
DTITLE=Unlucky Morpheus - Signs
DYEAR=2014
DGENRE=東方アレンジ
TTITLE0=Intro
TTITLE1=The power of dragons flying high
TTITLE2=Colourist
TTITLE3=Waltz fot the waterfall
TTITLE4=Alice
TTITLE5=天人の散歩道
TTITLE6=霞色の旅路
TTITLE7=Until u appear to my life
TTITLE8=My favorite song
EXTD=YEAR: 2014
EXTT0=
EXTT1=
EXTT2=
EXTT3=
EXTT4=
EXTT5=
EXTT6=
EXTT7=
EXTT8=
PLAYORDER=
